<svg xmlns="http://www.w3.org/2000/svg" xmlns:xlink="http://www.w3.org/1999/xlink" width="34" height="33" version="1.1" viewBox="0 0 34 33"><title>Combined Shape</title><desc>Created with Sketch.</desc><g id="Page-2" fill="none" fill-rule="evenodd" stroke="none" stroke-width="1"><path id="Combined-Shape" fill="#9B9B9B" fill-rule="nonzero" d="M28.7692308,14.5791016 L30.7692308,14.5791016 L30.7692308,27.9687404 C30.7692308,30.5468039 28.6730332,32.6396396 26.0963661,32.6396396 L4.67286468,32.6396396 C2.09197112,32.6396396 0,30.5491269 0,27.9687404 L0,6.67089928 C0,4.09283574 2.09619757,2 4.67286468,2 L18.7106527,2 L18.7106527,4 L4.67286468,4 C3.2000491,4 2,5.19812449 2,6.67089928 L2,27.9687404 C2,29.444245 3.19622852,30.6396396 4.67286468,30.6396396 L26.0963661,30.6396396 C27.5691817,30.6396396 28.7692308,29.4415151 28.7692308,27.9687404 L28.7692308,14.5791016 Z M33.2086519,6.07791403 C33.2086519,9.4350623 30.47503,12.153658 27.103236,12.153658 C23.730897,12.153658 21,9.4350623 21,6.07791403 C21,2.72130829 23.730897,0 27.103236,0 C30.47503,0 33.2086519,2.72130829 33.2086519,6.07791403 Z"/></g></svg>